<svg viewBox="0 0 80 80" xmlns="http://www.w3.org/2000/svg"><g fill="none" fill-rule="evenodd"><path d="M0 0h80v80H0z"/><g transform="translate(3.353 14.3)"><rect fill="#FFF" x="21.494" width="51.8" height="51.4" rx="2.4"/><path d="M70.894-.2a2.6 2.6 0 0 1 2.6 2.6V49a2.6 2.6 0 0 1-2.6 2.6h-47a2.6 2.6 0 0 1-2.6-2.6V2.4a2.6 2.6 0 0 1 2.6-2.6h47Zm0 .2h-47a2.4 2.4 0 0 0-2.4 2.4V49a2.4 2.4 0 0 0 2.4 2.4h47a2.4 2.4 0 0 0 2.4-2.4V2.4a2.4 2.4 0 0 0-2.4-2.4Z" fill="#7A7C83" fill-rule="nonzero"/><rect fill="#EDEDF1" x="24.944" y="28" width="45.9" height="21.2" rx="1.8"/><path d="M26.744 8h42.3a1.8 1.8 0 0 1 1.8 1.8v4.3a1.8 1.8 0 0 1-1.8 1.8h-42.3a1.8 1.8 0 0 1-1.8-1.8V9.8a1.8 1.8 0 0 1 1.8-1.8Z" fill-opacity=".17" fill="#315CEC"/><path d="m27.555 15.7-.001.199h-.6V15.7h.6Zm1.2 0-.001.199h-.6V15.7h.6Zm1.2 0-.001.199h-.6V15.7h.6Zm1.2 0-.001.199h-.6V15.7h.6Zm1.2 0-.001.199h-.6V15.7h.6Zm1.2 0-.001.199h-.6V15.7h.6Zm1.2 0-.001.199h-.6V15.7h.6Zm1.2 0-.001.199h-.6V15.7h.6Zm1.2 0-.001.199h-.6V15.7h.6Zm1.2 0-.001.199h-.6V15.7h.6Zm1.2 0-.001.199h-.6V15.7h.6Zm1.2 0-.001.199h-.6V15.7h.6Zm1.2 0-.001.199h-.6V15.7h.6Zm1.2 0-.001.199h-.6V15.7h.6Zm1.2 0-.001.199h-.6V15.7h.6Zm1.2 0-.001.199h-.6V15.7h.6Zm1.2 0-.001.199h-.6V15.7h.6Zm1.2 0-.001.199h-.6V15.7h.6Zm1.2 0-.001.199h-.6V15.7h.6Zm1.2 0-.001.199h-.6V15.7h.6Zm1.2 0-.001.199h-.6V15.7h.6Zm1.2 0-.001.199h-.6V15.7h.6Zm1.2 0-.001.199h-.6V15.7h.6Zm1.2 0-.001.199h-.6V15.7h.6Zm1.2 0-.001.199h-.6V15.7h.6Zm1.2 0-.001.199h-.6V15.7h.6Zm1.2 0-.001.199h-.6V15.7h.6Zm1.2 0-.001.199h-.6V15.7h.6Zm1.2 0-.001.199h-.6V15.7h.6Zm1.2 0-.001.199h-.6V15.7h.6Zm1.2 0-.001.199h-.6V15.7h.6Zm1.2 0-.001.199h-.6V15.7h.6Zm1.2 0-.001.199h-.6V15.7h.6Zm1.2 0-.001.199h-.6V15.7h.6Zm1.2 0-.001.199h-.6V15.7h.6Zm-42.45-.237c.153.094.32.161.495.2l-.043.195a1.79 1.79 0 0 1-.556-.225l.105-.17Zm44.47-.474.167.11a1.81 1.81 0 0 1-.413.438l-.12-.16a1.61 1.61 0 0 0 .366-.388Zm-45.15-.383a1.6 1.6 0 0 0 .251.47l-.159.122a1.796 1.796 0 0 1-.281-.528l.19-.064Zm45.619-.662v.156c0 .152-.019.3-.055.442l-.194-.05c.033-.127.049-.258.049-.392v-.155l.2-.001Zm-45.7-.478v.6l-.2-.001v-.6l.2.001Zm45.7-.722v.6h-.2v-.6h.2Zm-45.7-.478v.6l-.2-.001v-.6l.2.001Zm45.7-.722v.6h-.2v-.6h.2Zm-45.7-.478v.6l-.2-.001v-.6l.2.001Zm45.7-.722v.6h-.2v-.6h.2Zm-45.7-.478v.6l-.2-.001v-.6l.2.001Zm45.7-.066h-.2c0-.176-.029-.348-.084-.512l.19-.064c.06.18.094.375.094.576Zm-45.39-.946a1.594 1.594 0 0 0-.24.476l-.191-.058c.06-.195.151-.376.269-.536l.161.118Zm44.93-.255-.148.133a1.608 1.608 0 0 0-.418-.332l.098-.175c.176.098.335.225.468.374Zm-44.006-.357a1.59 1.59 0 0 0-.492.207l-.107-.169a1.79 1.79 0 0 1 .553-.233l.046.195ZM69.044 8c.102 0 .202.008.299.025l-.033.197a1.612 1.612 0 0 0-.266-.022h-.3V8h.3Zm-41.7 0v.2h-.6V8h.6Zm1.2 0v.2h-.6V8h.6Zm1.2 0v.2h-.6V8h.6Zm33.6 0v.2h-.6V8h.6Zm-1.2 0v.2h-.6V8h.6Zm-1.2 0v.2h-.6V8h.6Zm-1.2 0v.2h-.6V8h.6Zm-1.2 0v.2h-.6V8h.6Zm-1.2 0v.2h-.6V8h.6Zm-1.2 0v.2h-.6V8h.6Zm8.4 0v.2h-.6V8h.6Zm-10.8 0v.2h-.6V8h.6Zm-1.2 0v.2h-.6V8h.6Zm-1.2 0v.2h-.6V8h.6Zm-1.2 0v.2h-.6V8h.6Zm-1.2 0v.2h-.6V8h.6Zm19.2 0v.2h-.6V8h.6Zm-21.6 0v.2h-.6V8h.6Zm-1.2 0v.2h-.6V8h.6Zm-1.2 0v.2h-.6l-.001-.2h.6Zm-1.201 0v.2h-.6V8h.6Zm-1.2 0v.2h-.6V8h.6Zm-1.2 0v.2h-.6V8h.6Zm-1.2 0v.2h-.6V8h.6Zm-1.2 0v.2h-.6V8h.6Zm-1.2 0v.2h-.6V8h.6Zm-1.2 0v.2h-.6V8h.6Zm-1.2 0v.2h-.6V8h.6Zm-1.2 0v.2h-.6V8h.6Zm-1.2 0v.2h-.6V8h.6Zm-1.2 0v.2h-.6V8h.6Zm34.8 0v.2h-.6V8h.6Zm1.2 0v.2h-.6V8h.6Zm-19.2 0v.2h-.6V8h.6Zm7.2 0v.2h-.6V8h.6Z" fill="#315CEC" fill-rule="nonzero"/><rect fill="#EDEDF1" x="24.944" y="23.2" width="24.9" height="2.3" rx="1.15"/><rect fill="#EDEDF1" x="24.944" y="18.4" width="45.9" height="2.3" rx="1.15"/><path d="M23.894 0h47a2.4 2.4 0 0 1 2.4 2.4v3.4h-51.8V2.4a2.4 2.4 0 0 1 2.4-2.4Z" fill="#315CEC"/><circle fill="#FFF" opacity=".401" cx="24.759" cy="2.9" r="1.171"/><circle fill="#FFF" opacity=".401" cx="28.429" cy="2.9" r="1.171"/><circle fill="#FFF" opacity=".401" cx="32.1" cy="2.9" r="1.171"/><g transform="translate(0 22.5)"><rect fill="#315CEC" width="29.6" height="10.2" rx="1.8"/><rect fill="#FFF" x="1.894" y="2.796" width="4.608" height="4.608" rx="1.6"/><rect fill="#FFF" x="7.591" y="5.944" width="6.7" height="1.46" rx=".73"/><rect fill="#FFF" x="7.591" y="2.796" width="14" height="1.46" rx=".73"/></g><path d="M23.804 12.202a1.4 1.4 0 0 1-2.761.411 8.207 8.207 0 0 0-6.722 6.722 1.4 1.4 0 1 1-.4-.032 8.607 8.607 0 0 1 7.09-7.09 1.4 1.4 0 0 1 2.793-.011ZM13.01 20.63a1 1 0 1 0 1.995.14 1 1 0 0 0-1.995-.14Z" fill="#315CEC" fill-rule="nonzero"/><path d="m19.297 38.73.4-1.458-2.27-.593a.752.752 0 0 0-.914.528l-.004.013a.746.746 0 0 0 .531.92l2.257.59Z" fill="#FAE3E3"/><path d="M16.314 30.534a.752.752 0 0 0-1.027-.276l-.016.01a.752.752 0 0 0-.275 1.026l2.444 4.233 2.636-1.521-1.338-2.317a.752.752 0 0 0-1.027-.275l-.016.008a.752.752 0 0 0-.275 1.028l-1.106-1.916Zm5.08 2.711 1.317-.76-.81-1.404a.752.752 0 0 0-1.027-.275l-.015.009a.752.752 0 0 0-.276 1.027l.81 1.403Zm-1.318.76 1.317-.76-1.158-2.006a.752.752 0 0 0-1.027-.275l-.015.009A.752.752 0 0 0 18.917 32l1.159 2.006Zm2.862 5.782.712-.412a2.632 2.632 0 0 0 .964-3.595l-1.903-3.296-5.27 3.043 1.902 3.296a2.632 2.632 0 0 0 3.595.964Z" fill="#FAE3E3"/><path d="m18.758 34.767-2.444-4.233a.752.752 0 0 0-1.027-.276l-.016.01-.037.022a.752.752 0 0 1 .989.296l2.444 4.233.09-.052Zm2.635-1.522-1.156-2.002a.752.752 0 0 0-1.027-.276l-.015.01-.034.02a.752.752 0 0 1 .992.294l1.156 2.003.084-.049Zm-1.317.761-1.338-2.316a.752.752 0 0 0-1.027-.276l-.015.01-.039.023a.752.752 0 0 1 .988.297l1.337 2.316.094-.054Z" fill="#F9C2C2"/></g></g></svg>